<svg id="Component_25_1" data-name="Component 25 – 1" xmlns="http://www.w3.org/2000/svg" xmlns:xlink="http://www.w3.org/1999/xlink" width="357.625" height="83.13" viewBox="0 0 357.625 83.13">
  <defs>
    <clipPath id="clip-path">
      <rect id="Rectangle_49" data-name="Rectangle 49" width="357.625" height="83.13" fill="none"/>
    </clipPath>
  </defs>
  <g id="Group_41" data-name="Group 41" clip-path="url(#clip-path)">
    <path id="Path_113" data-name="Path 113" d="M168.007,42.88a7.346,7.346,0,0,1-6.508-6.393l-.023-29.7C161.446,3.5,164.886,0,168.147,0h36.2l.21.21v18.5l-.21.21H182.318a4.1,4.1,0,0,0-.736.386,2.494,2.494,0,0,0-.655,3.666c.242.327,1,.991,1.391.991h22.029l.21.21v18.5l-.21.21Z" transform="translate(153.068 0)" fill="#1a1818"/>
    <path id="Path_114" data-name="Path 114" d="M144.7,46.255V22.013h8.559V61.529h-7.577L126.6,36.586V61.529h-8.7V22.013h8.068Z" transform="translate(111.762 20.867)" fill="#1a1818"/>
    <path id="Path_115" data-name="Path 115" d="M62.078,22.016l20-.006c6.163.481,11.551,3.432,12.905,9.814,1.445,6.822-1.475,13.324-8.209,15.626l9.679,14.084H86.281L77.722,48.923h-6.8V61.534h-8.84Zm8.84,19.2h9.751a5.8,5.8,0,0,0,5.289-8.224,6.286,6.286,0,0,0-5.008-3.126H70.918Z" transform="translate(58.846 20.864)" fill="#1a1818"/>
    <path id="Path_116" data-name="Path 116" d="M37.085,61.672l16.76-39.808,8.479.027L79.316,61.672h-9.26l-3.713-8.84-16.538.033-3.812,8.807ZM63.322,45.136l-5.33-12.751L52.8,45.136Z" transform="translate(35.154 20.725)" fill="#1a1818"/>
    <path id="Path_117" data-name="Path 117" d="M135.138,61.712h-9.26L122.352,52.9,105.6,52.874l-3.713,8.838H92.907L110.088,21.9c2.4.23,5.252-.271,7.591,0,.2.023.366.016.469.232ZM119.144,45.176l-5.261-12.753-5.261,12.753Z" transform="translate(88.07 20.686)" fill="#1a1818"/>
    <path id="Path_118" data-name="Path 118" d="M19.033,21.712c5.867-.429,11.565.906,16.09,4.726.267.226,1.342,1.1,1.342,1.328L30.917,34.14C26.706,30.018,20.484,28.1,15.09,31.228,6.732,36.076,7.476,50.2,16.58,53.787c4.959,1.95,9.537.243,13.491-2.832.3-.232.875-1.029,1.247-.956l5.415,5.515c-8.279,9.872-25.134,9.41-32.743-1.064C-5.464,41.437,2.816,22.895,19.033,21.712" transform="translate(0 20.509)" fill="#1a1818"/>
    <path id="Path_119" data-name="Path 119" d="M173.275,22.013V30H161.207V61.531h-8.838V30H140.3V22.013Z" transform="translate(132.997 20.867)" fill="#1a1818"/>
    <path id="Path_120" data-name="Path 120" d="M31.09,22.013v31.67H46.1v7.848H22.39V22.013Z" transform="translate(21.224 20.867)" fill="#1a1818"/>
    <rect id="Rectangle_48" data-name="Rectangle 48" width="8.84" height="39.518" transform="translate(165.261 42.88)" fill="#1a1818"/>
  </g>
</svg>
