<svg id="Component_26_1" data-name="Component 26 – 1" xmlns="http://www.w3.org/2000/svg" xmlns:xlink="http://www.w3.org/1999/xlink" width="311.372" height="127.791" viewBox="0 0 311.372 127.791">
  <defs>
    <clipPath id="clip-path">
      <rect id="Rectangle_51" data-name="Rectangle 51" width="311.372" height="127.791" fill="none"/>
    </clipPath>
  </defs>
  <g id="Group_43" data-name="Group 43" clip-path="url(#clip-path)">
    <path id="Path_121" data-name="Path 121" d="M55.574,62.83c.368-.6.834-.577,1.444-.649a77.623,77.623,0,0,1,12.968.466c4.576.7,5.472,6.766,3.1,10.166-1.107,1.588-2.947,1.74-4.539,2.57,3.65,2.374,5.751,6.406,7.528,10.253-1.516-.181-4.325.423-5.579-.381-.869-.56-3.952-7.262-5.684-8.648-.866-.69-4.638-1.648-4.638-.385v8.789c-1.1,1.192-3.108.44-4.6.629Zm4.6,3.14.391,6.1c2.864.339,10.151,1.177,9.161-3.695-.157-.774-1.561-2.4-2.229-2.4Z" transform="translate(37.335 41.695)" fill="#1a1818"/>
    <path id="Path_122" data-name="Path 122" d="M145.9,65.4c6.012,6.766,2.621,20.51-8.013,20.809-9.721.274-13.817-8.178-11.3-16.768,2.407-8.224,14.033-9.986,19.316-4.041m-10.432.791c-7.212,1.5-6.4,17.235,2.79,16.2,7.811-.881,8.046-18.445-2.79-16.2" transform="translate(84.553 41.573)" fill="#1a1818"/>
    <path id="Path_123" data-name="Path 123" d="M78.361,61.973c10.027-.58,14.891,8.341,11.776,17.24-3.653,10.434-20.607,8.7-21.738-2.5-.749-7.4,1.521-14.252,9.962-14.742m-.874,4.171c-4.882,1.006-5.41,8.593-3.725,12.323,2.655,5.88,11.336,4.372,12.172-1.784s-1.04-12.067-8.448-10.539" transform="translate(45.86 41.616)" fill="#1a1818"/>
    <path id="Path_124" data-name="Path 124" d="M62.64,82.6C53.95,89.168,40.8,86.871,40.7,74.232c-.075-9.355,6.809-14.048,15.683-11.738A7.065,7.065,0,0,1,61.805,69l-4.348.446c-1.043-3.71-5.918-4.318-8.921-2.621-5.711,3.227-4.2,18.738,6.794,14.747,2.4-.871,3.175-1.254,2.643-4.138l-5.183-.443L52.6,73.6H62.64Z" transform="translate(27.34 41.592)" fill="#1a1818"/>
    <path id="Path_125" data-name="Path 125" d="M170.865,85.608c-1.5-.4.16-19.833-.593-22.757l.364-.49a2.239,2.239,0,0,1,1.045-.209,90.509,90.509,0,0,1,11.96.634c8.043,2.045,8.2,18.791,1.247,21.78a24.86,24.86,0,0,1-5.652,1.042c-1.9,0-6.975.376-8.371,0m3.976-19.67V81.213c1.767,1.18,6.635.881,8.361-.426,2.339-1.774,2.332-8.491,1.481-11.089-1.428-4.363-6.129-3.782-9.842-3.76" transform="translate(114.349 41.727)" fill="#1a1818"/>
    <path id="Path_126" data-name="Path 126" d="M101.964,79.057c-.946,6.655-7.423,7.878-13.058,6.363-2.907-.782-4.531-2.289-5.171-5.293-1.2-5.606-.333-11.883-.605-17.6l4.363-.005c.894.135-.585,15.041,1.312,17.98,1.22,1.889,5.609,2.108,7.286.639a12.531,12.531,0,0,0,1.269-2.08V62.735l.61-.523c1.424.906,2.988-.812,3.994.523-.515,5.057.694,11.44,0,16.322" transform="translate(55.813 41.789)" fill="#1a1818"/>
    <path id="Path_127" data-name="Path 127" d="M96.629,62.732c.689-1.067,1.657-.172,2.715-.174,3.409-.01,10.858-.931,13.189,1.429,2.254,2.28,2.4,8.182.273,10.527a13.552,13.552,0,0,1-4.248,2.237h-7.324v8.162l-.694.56a7.287,7.287,0,0,1-1.608.094c-.858,0-1.77.139-2.3-.654Zm4.6,3.558v6.069c2.406,1.526,8.389.833,8.392-2.929.005-3.955-5.749-3.365-8.392-3.14" transform="translate(64.915 41.792)" fill="#1a1818"/>
    <path id="Path_128" data-name="Path 128" d="M132.373,68.984l-4.163.831c-1.147-4.584-7.01-5.2-9.653-1.459-2.19,3.1-1.944,11.89,2.213,13.272,3.874,1.286,6.654-.314,7.436-4.26l4.584,1.247c-1.5,8.444-12.335,9.728-17.577,3.969-3.723-4.091-3.494-13.948.627-17.783,5.025-4.674,15.89-3.87,16.532,4.183" transform="translate(75.629 41.608)" fill="#1a1818"/>
    <path id="Path_129" data-name="Path 129" d="M31.5,77.422c-.043-1.857-.119-1.762-1.037-3.566-.754-1.48-7.538-11.1-6.913-11.708l5.025.2,5.231,8.585c1.3.324,4.42-7.689,5.515-8.414.181-.119,3.558-.14,4.318-.177.585-.028.722-.373,1.244.431-2.362,3.626-6,7.993-7.867,11.79A3.5,3.5,0,0,0,36.521,77v7.951l-.694.562a5.259,5.259,0,0,1-1.169.087c-.612.053-3.16.112-3.16-.649-.042-2.509.059-5.025,0-7.533" transform="translate(15.793 41.751)" fill="#1a1818"/>
    <path id="Path_130" data-name="Path 130" d="M169.783,65.914V84.955l-.694.562a7.39,7.39,0,0,1-1.608.092c-.858,0-1.77.14-2.3-.654V66.542l-.627-.629h-6.069c.117-1.262-.466-2.875.627-3.767h16.741c.933.553.891,3.536.229,4.011Z" transform="translate(106.433 41.751)" fill="#1a1818"/>
    <path id="Path_131" data-name="Path 131" d="M154.554,62.4V81.021l.629.627h11.089c-.117,1.262.466,2.875-.627,3.767H150.579l-.629-.627V62.4Z" transform="translate(100.736 41.919)" fill="#1a1818"/>
    <path id="Path_132" data-name="Path 132" d="M15.771,62.4l4.606,0,0,19.252h11.3v3.767h-15.9Z" transform="translate(10.595 41.918)" fill="#1a1818"/>
    <path id="Path_133" data-name="Path 133" d="M0,62.4l4.606,0,0,19.252H15.9c-.117,1.262.466,2.875-.629,3.767H0Z" transform="translate(0 41.918)" fill="#1a1818"/>
    <path id="Path_134" data-name="Path 134" d="M15.618,62.4v22.39l-.694.56a7.287,7.287,0,0,1-1.608.094c-.858,0-1.77.139-2.3-.654V62.4Z" transform="translate(7.399 41.919)" fill="#1a1818"/>
    <path id="Path_135" data-name="Path 135" d="M187.934,77.944h-4.19l.06-4.128,3.736-.294Z" transform="translate(123.439 49.392)" fill="#1a1818"/>
    <rect id="Rectangle_50" data-name="Rectangle 50" width="4.19" height="4.19" transform="translate(235.618 123.146)" fill="#1a1818"/>
    <path id="Path_136" data-name="Path 136" d="M90.625,0c-.186,1.113.478,8.178-.558,8.178H80.775c-1.037,0-.373-7.065-.558-8.178Z" transform="translate(53.862 0)" fill="#ffe814"/>
    <path id="Path_137" data-name="Path 137" d="M99.013,52.815c-.048-.037-.2-1.1-.557-1.108-.224,0-2.187,2.78-2.971,3.342-.893.64-3.409,2.086-2.807-.139a27.432,27.432,0,0,0,2.61-1.918c.727-.821,5.045-7.182,5.385-8,.5-1.2-.388-2.091,1.122-1.839,2.444.408,1.2,2.8,1.309,2.952.069.1,1.625.609,2.2.976,1.463.938,2.725,2.259,3.994,3.068.727.463,8.608,3.626,4.044,4.169-5.173.617-6.878-6.463-10.823-6.7-1.886-.115-2.534,2.108-3.5,3.335,1.331.617,4.415-1.341,5.017-1.344.486,0,2.77,1.331,2.048,2.09-1.819-.212-5.616,2.21-7.065,1.117.216.251-1.709,2.817,1.879,2.068,1.966-.41,3.384-2.4,5.52-1.107,2.616,1.588-.3,2.914-.547,4.6-.077.528.657.861.585,1.307-.222,1.373-5.261-.364-5.952,1.311h-.742c-1.52-1.938-2.643-5.062-1.652-7.434.122-.289.329-1.418.908-.744m1.521,5.91a2.952,2.952,0,0,0,3.68-2.936l-4.086.746Z" transform="translate(62.2 28.963)" fill="#1a1818"/>
    <path id="Path_138" data-name="Path 138" d="M91.441,45.141a3.362,3.362,0,0,1,.311,1.225c-.236,1.488-4.688-.137-6.294.889-.6.383-1.025,2.591-1.727,3.193,8.1-4.663,6.373,12.92-.933,7.61-3.629-2.638-1.267-6.686-.192-10.029-3.039.565-5.719,3.611-8.173.179-.16-.891.408-.451.933-.54,4.292-.736,9.645-2.74,13.8-2.961a5.458,5.458,0,0,1,2.274.433m-4.746,6.6a2.87,2.87,0,0,0-2.972,1.485l2.972.373Zm-.744,5.2c.239-1.194-1.658-2.76-2.225-1.3-.493,1.279,1.431,1.3,2.225,1.3" transform="translate(49.985 30.034)" fill="#1a1818"/>
    <path id="Path_139" data-name="Path 139" d="M90.636,5.781c-.017,2.541.015,5.091.017,7.635.012,13.058-.13,32.43,14.486,38.266a29.985,29.985,0,0,0,6.127,1.678h5.763c.172,1.037-.214.627-.818.839-4.848,1.719-12.9,2.066-17.761.455C82.743,49.447,80.61,26.623,80.212,12.674c-.028-1.013-.264-6.893.573-6.893Z" transform="translate(53.851 3.884)" fill="#ffe814"/>
    <path id="Path_140" data-name="Path 140" d="M86.029,0c-.849,17.086-1.923,43.184,12.457,55.375,10.6,8.984,24.387,5.952,35.84.386a31.973,31.973,0,0,1-44.958,3.533C80.246,51.56,75.342,38.033,73.505,26.47c-.629-3.952-.492-8.752-1.311-12.443C71.28,9.9,68.416,4.877,67.082.744V0Z" transform="translate(45.066 0)" fill="#cb131c"/>
    <path id="Path_141" data-name="Path 141" d="M103.87,0c-3.247,11.044-5.659,23.556-4.036,35.078,1.187,8.434,5.4,18.644,15.641,17.238,8.643-1.185,11.565-10,7.274-17.121-3.446-5.723-11.285-7.312-17.393-5.457V19.7c3.822-.771,8.486.308,12.02,1.913,6.908,3.138,11.184,9.676,12.5,17.046-.1,1.2.132,2.546,0,3.716-1.5,13.209-16.725,16.043-27.219,11.808-8.2-3.31-13.062-10.741-14.015-19.433L88.638,0Z" transform="translate(59.547 0)" fill="#191f5a"/>
    <path id="Path_142" data-name="Path 142" d="M109.458,0l.155,0a4.153,4.153,0,1,1-.155,0m-2.553,1.668a3.583,3.583,0,1,0,6.017,1.215,3.588,3.588,0,0,0-6.017-1.215" transform="translate(70.847 0)" fill="#1a1818"/>
    <path id="Path_143" data-name="Path 143" d="M107.029,1.159h1.657a1.285,1.285,0,0,1,1.391,1.558,1.208,1.208,0,0,1-.767.916l.955,1.769.007.062h-.8l-.863-1.652h-.829V5.464h-.747Zm.747.6V3.2l.012.01.874-.005a.7.7,0,0,0,.667-.906.675.675,0,0,0-.7-.532Z" transform="translate(71.902 0.779)" fill="#1a1818"/>
  </g>
</svg>
