<svg id="Component_28_1" data-name="Component 28 – 1" xmlns="http://www.w3.org/2000/svg" xmlns:xlink="http://www.w3.org/1999/xlink" width="228.519" height="127.791" viewBox="0 0 228.519 127.791">
  <defs>
    <clipPath id="clip-path">
      <rect id="Rectangle_52" data-name="Rectangle 52" width="228.519" height="127.791" fill="none"/>
    </clipPath>
  </defs>
  <g id="Component_27_1" data-name="Component 27 – 1">
    <g id="Group_45" data-name="Group 45" clip-path="url(#clip-path)">
      <text id="Q-FOAM_PLASTIC_CO._LTD." data-name="Q-FOAM PLASTIC CO., LTD." transform="translate(0 121.743)" fill="#208cbb" font-size="14" font-family="Montserrat-ExtraBold, Montserrat" font-weight="800"><tspan x="0" y="0" letter-spacing="-0.018em">Q</tspan><tspan y="0" letter-spacing="-0.019em">-</tspan><tspan y="0" letter-spacing="-0.025em">F</tspan><tspan y="0" letter-spacing="-0.03em">O</tspan><tspan y="0" letter-spacing="-0.019em">A</tspan><tspan y="0" letter-spacing="-0.02em">M</tspan><tspan y="0" letter-spacing="-0.019em"> </tspan><tspan y="0" letter-spacing="-0.03em">P</tspan><tspan y="0" letter-spacing="-0.012em">L</tspan><tspan y="0" letter-spacing="-0.02em">A</tspan><tspan y="0" letter-spacing="-0.03em">S</tspan><tspan y="0" letter-spacing="-0.02em">T</tspan><tspan y="0" letter-spacing="-0.019em">IC </tspan><tspan y="0" letter-spacing="-0.034em">C</tspan><tspan y="0" letter-spacing="-0.04em">O</tspan><tspan y="0" letter-spacing="-0.019em">., </tspan><tspan y="0" letter-spacing="-0.084em">L</tspan><tspan y="0" letter-spacing="-0.02em">T</tspan><tspan y="0" letter-spacing="-0.039em">D</tspan><tspan y="0">.</tspan></text>
      <path id="Path_144" data-name="Path 144" d="M82.416,72.143A10.075,10.075,0,0,1,77.382,70.8L60.327,60.95a10.1,10.1,0,0,1-5.035-8.719V32.538a10.1,10.1,0,0,1,5.035-8.719l17.055-9.847a10.1,10.1,0,0,1,10.067,0L104.5,23.819a10.1,10.1,0,0,1,5.035,8.719V52.231A10.1,10.1,0,0,1,104.5,60.95L87.449,70.8a10.08,10.08,0,0,1-5.033,1.344m0-55.071a5.616,5.616,0,0,0-2.81.75h0L62.549,27.67a5.636,5.636,0,0,0-2.81,4.867V52.231a5.639,5.639,0,0,0,2.81,4.869L79.6,66.947a5.635,5.635,0,0,0,5.623,0L102.282,57.1a5.639,5.639,0,0,0,2.81-4.869V32.538a5.636,5.636,0,0,0-2.81-4.867L85.227,17.822a5.627,5.627,0,0,0-2.811-.75" transform="translate(41.377 9.45)" fill="#208cbb"/>
      <path id="Path_145" data-name="Path 145" d="M83.508,12.292,64.163,1.508a2.226,2.226,0,0,0-1.019-.379l-.051-.005c-.044,0-.087-.007-.131-.007s-.068,0-.1,0-.072,0-.108.005-.068,0-.1.007c-.051.005-.1.012-.152.019l-.035.007a2.451,2.451,0,0,0-.949.383L37.772,17.528a2.471,2.471,0,0,0-.689.7,2.21,2.21,0,0,0-.4,1.275V46.475a2.221,2.221,0,0,0,4.443,0V22.159l18.24,10.167a2.222,2.222,0,1,0,2.163-3.881L44.01,18.682,62.953,5.921,81.345,16.173a2.222,2.222,0,0,0,2.163-3.881" transform="translate(27.448 0.833)" fill="#208cbb"/>
      <path id="Path_146" data-name="Path 146" d="M129.979,17.195a2.427,2.427,0,0,0-.689-.7L105.731.622a2.224,2.224,0,0,0-2.624-.341l-24.6,14.646a2.214,2.214,0,0,0-1.08,1.8c0,.021,0,.044,0,.066,0,.038,0,.079,0,.117a2.219,2.219,0,0,0,.878,1.724l22.323,14.1V58.261a2.222,2.222,0,1,0,4.444,0V32.629L125.94,20.838v24.6a2.222,2.222,0,1,0,4.444,0V18.469a2.195,2.195,0,0,0-.406-1.275M102.743,28.839,83.861,16.908,104.083,4.871,122.825,17.5Z" transform="translate(57.937 0)" fill="#208cbb"/>
      <path id="Path_147" data-name="Path 147" d="M148.351,32.356a2.208,2.208,0,0,0-1.6.684L124.065,46.229,102.323,32.491c-.016-.01-.031-.019-.047-.031-.033-.024-.066-.047-.1-.07s-.054-.033-.082-.051-.07-.038-.1-.056-.061-.031-.093-.045-.07-.03-.1-.044l-.1-.037-.1-.031c-.035-.01-.07-.019-.107-.028l-.1-.021c-.038-.007-.077-.012-.115-.017l-.1-.01-.122-.005c-.017,0-.037,0-.056,0l-.044,0q-.058,0-.115.005t-.11.01c-.031,0-.065.009-.1.014s-.082.014-.122.023l-.082.021c-.042.012-.086.023-.126.037s-.052.019-.08.03-.08.03-.119.047l-.086.04c-.035.017-.07.035-.1.054a.958.958,0,0,0-.091.054q-.047.029-.089.058c-.031.021-.061.044-.091.066s-.054.044-.08.066-.054.047-.08.072-.056.052-.082.08-.044.045-.065.07l-.084.1-.024.03-.026.04c-.028.037-.052.073-.077.112s-.031.051-.045.075-.042.075-.061.114l-.042.084c-.016.037-.031.075-.045.112s-.024.063-.035.094-.023.072-.033.11a.962.962,0,0,0-.026.1c-.009.035-.016.07-.023.107s-.012.075-.016.112-.009.068-.01.1-.005.079-.007.119c0,.019,0,.038,0,.058V61.234a2.222,2.222,0,0,0,4.444,0V38.285l18.76,11.854V75.663a2.221,2.221,0,1,0,4.443,0V50.009L146.129,38.54v24.3a2.222,2.222,0,0,0,4.444,0V34.579a2.222,2.222,0,0,0-2.222-2.222" transform="translate(73.903 23.976)" fill="#208cbb"/>
      <path id="Path_148" data-name="Path 148" d="M57.048,64.59l-6.485-3.9a10.1,10.1,0,0,0,4.614-8.458V32.539a10.092,10.092,0,0,0-5.033-8.719L33.087,13.974a10.089,10.089,0,0,0-10.067,0L5.965,23.82A10.092,10.092,0,0,0,.932,32.539V52.232a10.094,10.094,0,0,0,5.033,8.719L23.02,70.8a10.094,10.094,0,0,0,10.067,0L46.28,63.182a2.246,2.246,0,0,0,.518.428l7.96,4.787a2.222,2.222,0,1,0,2.29-3.808M30.865,66.948a5.636,5.636,0,0,1-5.621,0L8.188,57.1a5.641,5.641,0,0,1-2.81-4.869V32.539a5.641,5.641,0,0,1,2.81-4.869l17.057-9.847a5.64,5.64,0,0,1,5.621,0L47.92,27.67a5.639,5.639,0,0,1,2.811,4.869V52.232A5.639,5.639,0,0,1,47.92,57.1Z" transform="translate(0.697 9.45)" fill="#208cbb"/>
    </g>
  </g>
</svg>
